<svg width="183" height="37" viewBox="0 0 183 37" fill="none" xmlns="http://www.w3.org/2000/svg">
<path d="M16.5382 23.8146L21.6293 31.805L26.3322 29.0795L19.6461 18.5411L16.5382 23.8146Z" fill="#C3DFE0" fill-opacity="0.5"/>
<path d="M30.6148 25.8743L30.6114 23.6907L23.3056 12.3116L20.5951 16.9108L27.6478 28.3172L30.1979 26.8395C30.448 26.6364 30.5993 26.3383 30.6152 26.0166L30.6148 25.8743Z" fill="#C3DFE0" fill-opacity="0.5"/>
<path d="M0.000115348 27.9337L3.60116 30.0086L15.5845 10.7908L13.5506 10.7371C11.8178 10.7126 9.9512 11.1631 9.09435 12.5617L2.28937 23.1091L0 26.6266V27.9337H0.000115348Z" fill="#C3DFE0"/>
<path d="M22.5007 10.7908L17.1407 10.8102L5.01379 30.8219L9.25246 33.2625L10.4052 31.3074L22.5007 10.7908Z" fill="#C3DFE0"/>
<path d="M32.8737 10.7632C32.8289 9.64221 32.222 8.61596 31.2712 8.01853L17.9458 0.355435C17.0053 -0.118175 15.8304 -0.118748 14.8884 0.355091C14.7771 0.411214 1.92962 7.8623 1.92962 7.8623C1.75186 7.94752 1.58062 8.04911 1.41947 8.16434C0.570752 8.77264 0.0533893 9.7178 0.000244141 10.7563V26.6267L2.28961 23.1091L2.26956 10.8636C2.27231 10.8188 2.27793 10.7749 2.28583 10.7313C2.33749 10.4432 2.49841 10.1861 2.74066 10.0125C2.80113 9.96921 15.868 2.40565 15.9095 2.3848C16.2167 2.23052 16.607 2.22892 16.9145 2.38011L30.0676 9.94596C30.3788 10.1441 30.5738 10.4802 30.5911 10.8475V26.0166C30.5752 26.3384 30.4481 26.6364 30.1979 26.8396L27.6479 28.3172L26.3322 29.0797L21.6293 31.8051L16.86 34.5691C16.6031 34.6619 16.3027 34.6567 16.048 34.5531L10.4052 31.3076L9.25254 33.2625L14.3235 36.1821C14.4912 36.2774 14.6407 36.362 14.7633 36.4309C14.9532 36.5374 15.0825 36.6086 15.1282 36.6307C15.4886 36.8057 16.0071 36.9076 16.4744 36.9076C16.9029 36.9076 17.3206 36.8289 17.716 36.6741L31.5687 28.6516C32.3638 28.0356 32.8316 27.1066 32.8737 26.1001V10.7632Z" fill="#C3DFE0"/>
<path d="M49.3589 13.3829C49.7258 13.3829 50.0347 13.4577 50.2857 13.6072C50.537 13.7569 50.7831 14.0492 51.0249 14.484L55.8205 23.1916C55.8687 23.2882 55.881 23.3677 55.8569 23.4305C55.8329 23.4936 55.7629 23.5246 55.647 23.5246H53.8069C53.6428 23.5246 53.5318 23.4618 53.4736 23.3364L52.445 21.4674H45.6355L44.6356 23.3364C44.5679 23.4621 44.4569 23.5246 44.3026 23.5246H42.4195C42.2935 23.5246 42.219 23.4936 42.1949 23.4305C42.1702 23.3677 42.1825 23.2882 42.2307 23.1916L46.9831 14.484C47.2246 14.0492 47.4612 13.7572 47.6933 13.6072C47.925 13.4577 48.1949 13.3829 48.5044 13.3829H49.3589ZM46.5479 19.7868H51.532L49.2284 15.5416C49.1897 15.4742 49.1363 15.4401 49.0689 15.4401H48.982C48.9143 15.4401 48.861 15.4742 48.8225 15.5416L46.5479 19.7868Z" fill="#C3DFE0"/>
<path d="M71.035 13.3829C72.1457 13.3829 72.9425 13.6341 73.4258 14.1364C73.9086 14.6387 74.1501 15.3824 74.1501 16.3674V17.1932C74.1501 18.0239 73.9808 18.681 73.6429 19.1638C73.3045 19.6468 72.7537 19.9558 71.991 20.0909L74.4688 23.1626C74.5169 23.2111 74.5313 23.2834 74.5121 23.3797C74.4926 23.4764 74.4151 23.5246 74.2803 23.5246H72.411C72.2853 23.5246 72.1981 23.5102 72.1502 23.4816C72.1018 23.4523 72.0536 23.4041 72.0054 23.3364L69.7161 20.3229H65.0364V23.2059C65.0364 23.4187 64.93 23.5246 64.7177 23.5246H63.153C62.931 23.5246 62.8197 23.4187 62.8197 23.2059V13.8177C62.8197 13.5277 62.9648 13.3829 63.2548 13.3829H71.035ZM65.0367 18.5551H70.5861C71.0786 18.5551 71.4266 18.449 71.6291 18.2364C71.8321 18.0242 71.9337 17.7006 71.9337 17.2658V16.6571C71.9337 16.2226 71.8321 15.8987 71.6291 15.6865C71.4266 15.4742 71.0786 15.3678 70.5861 15.3678H65.2251C65.0995 15.3678 65.037 15.4257 65.037 15.5416L65.0367 18.5551Z" fill="#C3DFE0"/>
<path d="M90.3527 13.3829C91.348 13.3829 92.0553 13.5808 92.4753 13.9769C92.8958 14.3728 93.1054 14.9717 93.1054 15.7734V16.469C93.1054 17.2804 92.7965 17.8937 92.1787 18.309C92.8447 18.6954 93.178 19.3187 93.178 20.1781V21.0185C93.178 21.4051 93.1344 21.7531 93.0475 22.062C92.9606 22.3709 92.818 22.634 92.6204 22.8517C92.4225 23.0688 92.1592 23.2355 91.8307 23.3513C91.502 23.4672 91.0964 23.5249 90.6134 23.5249H82.0074C81.7174 23.5249 81.5723 23.38 81.5723 23.0903V13.8177C81.5723 13.5277 81.7174 13.3829 82.0074 13.3829H90.3527ZM83.7892 17.5988H89.7299C90.213 17.5988 90.5411 17.5265 90.7152 17.3817C90.8888 17.2365 90.9759 17.0243 90.9759 16.7438V16.2512C90.9759 15.9518 90.8913 15.7321 90.7224 15.5918C90.5532 15.4521 90.2807 15.3821 89.9038 15.3821H83.9777C83.8521 15.3821 83.7892 15.4452 83.7892 15.5703V17.5988ZM83.7892 19.1781V21.3369C83.7892 21.4625 83.8521 21.5253 83.9777 21.5253H89.9181C90.3048 21.5253 90.5798 21.4551 90.7439 21.3154C90.9083 21.1757 90.99 20.9508 90.99 20.6416V20.0909C90.99 19.7914 90.9005 19.5645 90.7221 19.4099C90.5431 19.2556 90.2127 19.1779 89.7296 19.1779H83.7892V19.1781Z" fill="#C3DFE0"/>
<path d="M102.374 13.3829C102.587 13.3829 102.693 13.489 102.693 13.7015V23.2059C102.693 23.4187 102.587 23.5246 102.374 23.5246H100.809C100.587 23.5246 100.476 23.4187 100.476 23.2059V13.7015C100.476 13.489 100.587 13.3829 100.809 13.3829H102.374Z" fill="#C3DFE0"/>
<path d="M121.348 13.3829C121.57 13.3829 121.681 13.489 121.681 13.7015V15.1211C121.681 15.3434 121.57 15.4544 121.348 15.4544H116.799V23.2056C116.799 23.4185 116.692 23.5243 116.48 23.5243H114.901C114.688 23.5243 114.582 23.4185 114.582 23.2056V15.4547H110.033C109.811 15.4547 109.7 15.3437 109.7 15.1214V13.7018C109.7 13.4893 109.811 13.3832 110.033 13.3832H121.348V13.3829Z" fill="#C3DFE0"/>
<path d="M136.888 13.3829C137.999 13.3829 138.796 13.6341 139.279 14.1364C139.762 14.6387 140.004 15.3824 140.004 16.3674V17.1932C140.004 18.0239 139.834 18.681 139.497 19.1638C139.158 19.6468 138.607 19.9558 137.845 20.0909L140.322 23.1626C140.371 23.2111 140.385 23.2834 140.365 23.3797C140.346 23.4764 140.269 23.5246 140.134 23.5246H138.265C138.139 23.5246 138.052 23.5102 138.004 23.4816C137.955 23.4523 137.907 23.4041 137.859 23.3364L135.57 20.3229H130.89V23.2059C130.89 23.4187 130.784 23.5246 130.572 23.5246H129.007C128.785 23.5246 128.674 23.4187 128.674 23.2059V13.8177C128.674 13.5277 128.819 13.3829 129.109 13.3829H136.888ZM130.89 18.5551H136.44C136.932 18.5551 137.28 18.449 137.483 18.2364C137.686 18.0242 137.787 17.7006 137.787 17.2658V16.6571C137.787 16.2226 137.686 15.8987 137.483 15.6865C137.28 15.4742 136.932 15.3678 136.44 15.3678H131.079C130.953 15.3678 130.891 15.4257 130.891 15.5416V18.5551H130.89Z" fill="#C3DFE0"/>
<path d="M149.112 13.3829C149.325 13.3829 149.431 13.489 149.431 13.7015V19.4825C149.431 19.8688 149.462 20.1901 149.525 20.4457C149.588 20.7018 149.692 20.9046 149.837 21.0541C149.982 21.2041 150.177 21.3105 150.424 21.3727C150.67 21.4358 150.981 21.4671 151.358 21.4671H155.371C155.748 21.4671 156.06 21.4358 156.306 21.3727C156.552 21.3102 156.748 21.2041 156.893 21.0541C157.038 20.9046 157.139 20.7015 157.197 20.4457C157.255 20.1898 157.284 19.8686 157.284 19.4825V13.7015C157.284 13.489 157.391 13.3829 157.603 13.3829H159.182C159.394 13.3829 159.501 13.489 159.501 13.7015V19.6996C159.501 20.3952 159.429 20.9866 159.283 21.4746C159.139 21.9622 158.904 22.3583 158.581 22.6626C158.257 22.967 157.837 23.1867 157.32 23.3218C156.804 23.4575 156.178 23.5246 155.444 23.5246H151.271C150.537 23.5246 149.914 23.4575 149.402 23.3218C148.89 23.1867 148.472 22.967 148.149 22.6626C147.825 22.3583 147.588 21.9625 147.439 21.4746C147.289 20.9866 147.214 20.3949 147.214 19.6996V13.7015C147.214 13.489 147.325 13.3829 147.547 13.3829H149.112Z" fill="#C3DFE0"/>
<path d="M169.821 13.3829C170.034 13.3829 170.217 13.3972 170.372 13.4262C170.526 13.4552 170.662 13.5108 170.777 13.5928C170.893 13.6749 170.997 13.7862 171.089 13.9261C171.18 14.0658 171.275 14.252 171.372 14.4838L174.385 21.4381C174.423 21.5253 174.492 21.5686 174.588 21.5686H174.762C174.858 21.5686 174.926 21.5253 174.965 21.4381L177.978 14.4838C178.075 14.2517 178.169 14.0658 178.261 13.9261C178.352 13.7862 178.456 13.6749 178.572 13.5928C178.688 13.5108 178.821 13.4552 178.971 13.4262C179.12 13.3969 179.301 13.3829 179.514 13.3829H181.064C181.566 13.3829 181.905 13.4965 182.078 13.7234C182.252 13.9505 182.339 14.3392 182.339 14.8896V23.2059C182.339 23.4187 182.228 23.5246 182.006 23.5246H180.529C180.316 23.5246 180.21 23.4187 180.21 23.2059V15.6429C180.21 15.5465 180.171 15.498 180.094 15.498H179.963C179.867 15.498 179.804 15.537 179.775 15.6139L176.849 22.105C176.733 22.3655 176.614 22.5858 176.493 22.7642C176.373 22.9432 176.242 23.0903 176.103 23.2059C175.962 23.3218 175.803 23.4041 175.624 23.4523C175.446 23.5008 175.236 23.5246 174.994 23.5246H174.299C174.057 23.5246 173.847 23.5008 173.669 23.4523C173.49 23.4041 173.33 23.3218 173.19 23.2059C173.05 23.0903 172.92 22.9432 172.799 22.7642C172.678 22.5858 172.56 22.3655 172.444 22.105L169.518 15.6139C169.489 15.5367 169.426 15.498 169.329 15.498H169.199C169.121 15.498 169.083 15.5465 169.083 15.6429V23.2059C169.083 23.4187 168.977 23.5246 168.765 23.5246H167.287C167.065 23.5246 166.953 23.4187 166.953 23.2059V14.8896C166.953 14.3392 167.041 13.9505 167.214 13.7234C167.388 13.4968 167.731 13.3829 168.243 13.3829H169.821Z" fill="#C3DFE0"/>
</svg>
