<svg width="181" height="38" viewBox="0 0 181 38" fill="none" xmlns="http://www.w3.org/2000/svg">
<g clip-path="url(#clip0_285_15779)">
<path d="M48.999 12.5495H50.966L56.4701 25.4471H53.8715L52.6804 22.4959H47.1402L45.9852 25.4471H43.4407L48.999 12.5495ZM51.8864 20.5285L49.9193 15.282L47.9162 20.5285H51.8864Z" fill="#C3DFE0"/>
<path d="M58.9092 12.5495H61.5259L65.0088 22.2956L68.5999 12.5495H71.0546L65.8931 25.4471H63.9262L58.9092 12.5495Z" fill="#C3DFE0"/>
<path d="M79.1806 12.5495H81.1481L86.6517 25.4471H84.0531L82.8623 22.4959H77.3219L76.1668 25.4471H73.6226L79.1806 12.5495ZM82.0681 20.5285L80.1012 15.282L78.098 20.5285H82.0681Z" fill="#C3DFE0"/>
<path d="M91.6812 12.5495H93.9551V23.3704H99.3868V25.4471H91.6812V12.5495Z" fill="#C3DFE0"/>
<path d="M108.781 12.5495H110.748L116.252 25.4471H113.653L112.462 22.4959H106.922L105.767 25.4471H103.223L108.781 12.5495ZM111.668 20.5285L109.701 15.282L107.698 20.5285H111.668Z" fill="#C3DFE0"/>
<path d="M121.281 12.5495H124.295L130.485 22.1316H130.521V12.5495H132.795V25.4471H129.908L123.591 15.5553H123.555V25.4471H121.281V12.5495Z" fill="#C3DFE0"/>
<path d="M148.024 15.5735C147.555 15.0634 147.098 14.7234 146.653 14.5533C146.219 14.3833 145.78 14.2983 145.335 14.2983C144.674 14.2983 144.072 14.4197 143.531 14.6626C143.001 14.8934 142.544 15.2213 142.159 15.6464C141.774 16.0593 141.473 16.5451 141.257 17.1037C141.052 17.6624 140.95 18.2635 140.95 18.9072C140.95 19.5994 141.052 20.2371 141.257 20.82C141.473 21.4029 141.774 21.9069 142.159 22.332C142.544 22.7571 143.001 23.091 143.531 23.334C144.072 23.5768 144.674 23.6983 145.335 23.6983C145.853 23.6983 146.352 23.5768 146.833 23.334C147.326 23.0789 147.783 22.6781 148.205 22.1316L150.081 23.4797C149.504 24.2812 148.8 24.8642 147.97 25.2285C147.14 25.5929 146.255 25.7751 145.317 25.7751C144.33 25.7751 143.422 25.6172 142.592 25.3014C141.774 24.9735 141.064 24.5181 140.463 23.9351C139.873 23.34 139.41 22.6295 139.073 21.8037C138.736 20.9779 138.568 20.0609 138.568 19.0529C138.568 18.0207 138.736 17.0855 139.073 16.2475C139.41 15.3974 139.873 14.6748 140.463 14.0797C141.064 13.4846 141.774 13.0292 142.592 12.7134C143.422 12.3855 144.33 12.2216 145.317 12.2216C146.183 12.2216 146.983 12.3795 147.717 12.6952C148.463 12.9988 149.155 13.521 149.793 14.2619L148.024 15.5735Z" fill="#C3DFE0"/>
<path d="M155.217 12.5495H157.49V17.6866H163.464V12.5495H165.738V25.4471H163.464V19.7634H157.49V25.4471H155.217V12.5495Z" fill="#C3DFE0"/>
<path d="M172.202 12.5495H180.666V14.6262H174.476V17.796H180.341V19.8727H174.476V23.3704H180.991V25.4471H172.202V12.5495Z" fill="#C3DFE0"/>
<path fill-rule="evenodd" clip-rule="evenodd" d="M36.6532 19C36.6532 29.2173 28.4481 37.5 18.3266 37.5C8.20511 37.5 0 29.2173 0 19C0 8.78274 8.20511 0.5 18.3266 0.5C28.4481 0.5 36.6532 8.78274 36.6532 19ZM13.1334 26.3617H9.57674C8.8294 26.3617 8.46021 26.3617 8.23508 26.2163C7.99199 26.0572 7.84339 25.7936 7.82537 25.5027C7.81189 25.2346 7.99646 24.9074 8.36566 24.2529L17.1475 8.62719C17.5212 7.96365 17.7103 7.63191 17.9489 7.50918C18.2055 7.37743 18.5117 7.37743 18.7683 7.50918C19.0069 7.63191 19.196 7.96365 19.5697 8.62719L21.3751 11.8085L21.3843 11.8247C21.7879 12.5366 21.9925 12.8976 22.0819 13.2764C22.1809 13.69 22.1809 14.1263 22.0819 14.5399C21.9919 14.9217 21.7892 15.2852 21.3795 16.0079L16.7667 24.2393L16.7547 24.2604C16.3484 24.9781 16.1425 25.3418 15.8572 25.6164C15.5466 25.9163 15.1729 26.1344 14.7632 26.2571C14.3895 26.3617 13.9708 26.3617 13.1334 26.3617ZM22.1152 26.3621H27.2116C27.9635 26.3621 28.3417 26.3621 28.5668 26.2121C28.8099 26.053 28.9629 25.7849 28.9765 25.494C28.9895 25.2348 28.8089 24.9202 28.455 24.3038C28.4429 24.2828 28.4307 24.2614 28.4182 24.2397L25.8655 19.8313L25.8364 19.7817C25.4777 19.1693 25.2965 18.8601 25.0641 18.7406C24.8075 18.6088 24.5059 18.6088 24.2492 18.7406C24.0151 18.8633 23.826 19.186 23.4523 19.8358L20.9086 24.2442L20.8999 24.2594C20.5276 24.9083 20.3415 25.2325 20.3549 25.4986C20.3729 25.7895 20.5214 26.0576 20.7646 26.2167C20.9852 26.3621 21.3633 26.3621 22.1152 26.3621Z" fill="#C3DFE0"/>
</g>
<defs>
<clipPath id="clip0_285_15779">
<rect width="181" height="37" fill="white" transform="translate(0 0.5)"/>
</clipPath>
</defs>
</svg>
