<svg width="161" height="28" viewBox="0 0 161 28" fill="none" xmlns="http://www.w3.org/2000/svg">
<g clip-path="url(#clip0_285_15791)">
<path d="M5.17611 4.28878L12.6141 0L20.0521 4.28878L17.3175 5.87317L12.6141 3.16878L7.91067 5.87317L5.17611 4.28878ZM20.0521 9.69755L17.3175 8.11317L12.6141 10.8176L7.91067 8.11317L5.17611 9.69755V12.8663L9.87954 15.5707V20.9795L12.6141 22.5639L15.3487 20.9795V15.5707L20.0521 12.8663V9.69755ZM20.0521 18.2751V15.1063L17.3175 16.6907V19.8595L20.0521 18.2751ZM21.9936 19.3951L17.2902 22.0995V25.2682L24.7282 20.9795V12.4019L21.9936 13.9863V19.3951ZM19.2591 6.99317L21.9936 8.57755V11.7463L24.7282 10.1619V6.99317L21.9936 5.40878L19.2591 6.99317ZM9.87954 23.2469V26.4157L12.6141 28L15.3487 26.4157V23.2469L12.6141 24.8312L9.87954 23.2469ZM5.17611 18.2751L7.91067 19.8595V16.6907L5.17611 15.1063V18.2751ZM9.87954 6.99317L12.6141 8.57755L15.3487 6.99317L12.6141 5.40878L9.87954 6.99317ZM3.23455 8.57755L5.96912 6.99317L3.23455 5.40878L0.5 6.99317V10.1619L3.23455 11.7463V8.57755ZM3.23455 13.9863L0.5 12.4019V20.9795L7.93798 25.2682V22.0995L3.23455 19.3951V13.9863Z" fill="#C3DFE0"/>
<path d="M46.2868 17.5718V17.5273C46.2868 15.4348 45.1726 14.3885 43.3676 13.6984C44.4818 13.0751 45.4178 12.0955 45.4178 10.3369V10.2924C45.4178 7.84369 43.4568 6.26315 40.2701 6.26315H33.0276V21.846H40.4483C43.9693 21.846 46.2868 20.4212 46.2868 17.5718ZM42.0083 10.9157C42.0083 12.0733 41.05 12.563 39.5347 12.563H36.3703V9.26841H39.7575C41.206 9.26841 42.0083 9.8472 42.0083 10.8712V10.9157ZM42.8773 17.1488C42.8773 18.3064 41.9636 18.8407 40.4483 18.8407H36.3703V15.4125H40.3369C42.0974 15.4125 42.8773 16.058 42.8773 17.1043V17.1488Z" fill="#C3DFE0"/>
<path d="M63.1935 21.846V6.26315H59.8063V15.8577L52.497 6.26315H49.3326V21.846H52.7199V11.9398L60.2743 21.846H63.1935Z" fill="#C3DFE0"/>
<path d="M80.4201 17.5718V17.5273C80.4201 15.4348 79.3059 14.3885 77.5009 13.6984C78.6151 13.0751 79.5511 12.0955 79.5511 10.3369V10.2924C79.5511 7.84369 77.5901 6.26315 74.4034 6.26315H67.161V21.846H74.5816C78.1026 21.846 80.4201 20.4212 80.4201 17.5718ZM76.1416 10.9157C76.1416 12.0733 75.1833 12.563 73.668 12.563H70.5036V9.26841H73.8908C75.3393 9.26841 76.1416 9.8472 76.1416 10.8712V10.9157ZM77.0107 17.1488C77.0107 18.3064 76.097 18.8407 74.5816 18.8407H70.5036V15.4125H74.4702C76.2307 15.4125 77.0107 16.058 77.0107 17.1043V17.1488Z" fill="#C3DFE0"/>
<path d="M101.103 19.0932L99.3427 17.3123C98.0056 18.5589 96.78 19.3381 94.8635 19.3381C91.8774 19.3381 89.7158 16.8448 89.7158 13.7727C89.7158 10.7007 91.8774 8.25199 94.8635 8.25199C96.6463 8.25199 97.9834 9.03114 99.2313 10.1887L100.992 8.16295C99.4987 6.73824 97.7604 5.73648 94.8858 5.73648C90.1615 5.73648 86.8412 9.36505 86.8412 13.8173C86.8412 18.314 90.2284 21.8535 94.7744 21.8535C97.6936 21.8535 99.4764 20.785 101.103 19.0932Z" fill="#C3DFE0"/>
<path d="M114.391 15.0194V21.5865H117.132V6.00363H114.391V12.4816H106.948V6.00363H104.207V21.5865H106.948V15.0194H114.391Z" fill="#C3DFE0"/>
<path d="M129.427 5.89233H126.887L120.024 21.5865H122.831L124.436 17.8243H131.812L133.395 21.5865H136.291L129.427 5.89233ZM130.809 15.3978H125.439L128.112 9.16472L130.809 15.3978Z" fill="#C3DFE0"/>
<path d="M139.345 6.00363V21.5865H142.086V6.00363H139.345Z" fill="#C3DFE0"/>
<path d="M157.382 16.7781L149.024 6.00363H146.484V21.5865H149.181V10.5004L157.782 21.5865H160.078V6.00363H157.382V16.7781Z" fill="#C3DFE0"/>
</g>
<defs>
<clipPath id="clip0_285_15791">
<rect width="160" height="28" fill="white" transform="translate(0.5)"/>
</clipPath>
</defs>
</svg>
