<svg width="184" height="20" viewBox="0 0 184 20" fill="none" xmlns="http://www.w3.org/2000/svg">
<g clip-path="url(#clip0_285_15859)">
<path d="M72.5242 19.6382H82.819V0.371209H72.5242V19.6382ZM64.7858 0.366512H70.8878V2.85458H65.2446C64.3129 2.85458 63.5511 3.12581 62.9581 3.66711C62.3637 4.2084 62.0675 4.91995 62.0675 5.80058C62.0675 6.68119 62.3637 7.42094 62.9581 7.96225C63.5511 8.5035 64.3141 8.77475 65.2446 8.77475H70.8878V19.6394H58.5694V17.1466H65.0274C66.0315 17.1466 66.8497 16.8624 67.4783 16.293C68.1088 15.7247 68.4241 14.9991 68.4241 14.1184C68.4241 13.2378 68.1088 12.5216 67.4783 11.9709C66.8484 11.4202 66.0315 11.1454 65.0274 11.1454L64.208 11.1595C61.5725 11.1595 59.432 9.02131 59.4156 6.37237L59.4121 5.79118V5.77005C59.4121 2.78648 61.8191 0.367686 64.787 0.367686L64.7858 0.366512ZM90.3452 0.366512H96.2578V2.85458H90.8046C89.8736 2.85458 89.1112 3.12581 88.5181 3.66711C87.9244 4.2084 87.6275 4.91995 87.6275 5.80058C87.6275 6.68119 87.9244 7.42094 88.5181 7.96225C89.1112 8.5035 89.8748 8.77475 90.8046 8.77475H96.2578V14.1337C96.2578 17.1747 93.8057 19.6394 90.7801 19.6394H84.5057V17.1466H90.3974C91.4014 17.1466 92.2196 16.8624 92.8489 16.293C93.4787 15.7247 93.794 14.9991 93.794 14.1184C93.794 13.2378 93.4787 12.5216 92.8489 11.9709C92.2183 11.4202 91.4014 11.1595 90.3974 11.1595H85.0049L84.9712 5.79118V5.77005C84.9712 2.78648 87.3779 0.367686 90.3458 0.367686L90.3452 0.366512ZM9.58609 0.366512H16.4889V2.85458H9.77868C8.51932 2.85458 7.35442 3.17161 6.28648 3.80449C5.21849 4.43736 4.37345 5.30038 3.75251 6.39238C3.13156 7.48431 2.82109 8.67263 2.82109 9.95713C2.82109 11.2417 3.13156 12.5391 3.75251 13.6217C4.37345 14.7055 5.21733 15.5626 6.28648 16.1955C7.35442 16.8284 8.51932 17.1454 9.77868 17.1454H13.8592V11.1583H7.23071V8.736H16.4889V19.6382H9.59309C4.29641 19.6417 0 15.3266 0 10.0029C0 4.68042 4.29175 0.366512 9.58609 0.366512ZM36.5948 9.3125V19.6452H34.1519V9.34537C34.1519 5.76066 31.2607 2.85458 27.6938 2.85458C24.1269 2.85458 21.2358 5.76066 21.2358 9.34537V19.6452H18.7719V0.378254H27.7067C32.6159 0.378254 36.596 4.37866 36.596 9.31369L36.5948 9.3125ZM80.9956 6.18101C80.9956 8.02913 79.5064 9.52625 77.6707 9.52625C75.8344 9.52625 74.3452 8.028 74.3452 6.18101C74.3452 4.33404 75.8344 2.83579 77.6707 2.83579C79.5064 2.83579 80.9956 4.33404 80.9956 6.18101ZM102.912 9.9865V10.0088C102.912 15.3301 107.204 19.6382 112.498 19.6382H116.549V17.1454H112.563C108.586 17.1454 105.37 13.8612 105.455 9.84325C105.538 5.93678 108.807 2.85341 112.694 2.85341H116.549V0.378254H112.471C107.191 0.378254 102.911 4.68042 102.911 9.98769L102.912 9.9865ZM175.112 0.378254H166.177V19.6382H168.641V9.34537C168.641 5.76066 171.532 2.85458 175.099 2.85458C178.666 2.85458 181.557 5.76066 181.557 9.34537V19.6382H184V9.3125C184 4.37748 180.02 0.377079 175.111 0.377079L175.112 0.378254ZM130.514 6.83738C130.514 7.36925 130.326 7.819 129.952 8.1865C129.578 8.554 129.135 8.73719 128.624 8.73719H122.928C122.398 8.73719 121.951 8.554 121.586 8.1865C121.22 7.82013 121.038 7.37044 121.038 6.83738V0.378254H118.575V19.6382H121.038V13.0581C121.038 12.5262 121.22 12.0765 121.586 11.709C121.951 11.3427 122.398 11.1583 122.928 11.1583H128.624C129.135 11.1583 129.578 11.3415 129.952 11.709C130.326 12.0765 130.514 12.5262 130.514 13.0581V19.6382H132.951V0.378254H130.514V6.83738ZM153.858 0.378254V19.6382H164.153V0.378254H153.858ZM159.006 9.52738C157.169 9.52738 155.681 8.02913 155.681 6.18218C155.681 4.33521 157.17 2.83697 159.006 2.83697C160.842 2.83697 162.331 4.33521 162.331 6.18218C162.331 8.02913 160.842 9.52738 159.006 9.52738ZM144.837 1.40331C144.512 0.677669 144.052 0.313674 143.456 0.313674C142.859 0.313674 142.399 0.676494 142.074 1.40331L133.866 19.6382H152.963L144.837 1.40331ZM143.456 16.482C141.618 16.482 140.13 14.9837 140.13 13.1368C140.13 11.2898 141.619 9.79156 143.456 9.79156C145.291 9.79156 146.78 11.2898 146.78 13.1368C146.78 14.9837 145.291 16.482 143.456 16.482ZM56.5583 5.09725C55.6795 3.60957 54.4936 2.4401 53.0031 1.58882C51.5115 0.738725 49.8868 0.3125 48.1289 0.3125C46.3712 0.3125 44.813 0.738725 43.2945 1.58882C41.776 2.4401 40.5901 3.60957 39.7392 5.09725C38.886 6.58612 38.4612 8.20644 38.4612 9.96069C38.4612 11.7149 38.8872 13.3364 39.7392 14.8241C40.5913 16.3129 41.7771 17.4953 43.2945 18.3724C44.813 19.2496 46.4225 19.6875 48.1289 19.6875C49.8354 19.6875 51.5103 19.2496 53.0031 18.3724C54.4936 17.4953 55.6795 16.3129 56.5583 14.8241C57.4373 13.3364 57.8762 11.7137 57.8762 9.96069C57.8762 8.20763 57.4373 6.58494 56.5583 5.09725ZM48.1698 13.3611C46.328 13.3611 44.8352 11.8581 44.8352 10.0041C44.8352 8.15006 46.328 6.64712 48.1698 6.64712C50.0116 6.64712 51.5045 8.15006 51.5045 10.0041C51.5045 11.8581 50.0116 13.3611 48.1698 13.3611Z" fill="#C3DFE0"/>
</g>
<defs>
<clipPath id="clip0_285_15859">
<rect width="184" height="20" fill="white"/>
</clipPath>
</defs>
</svg>
