<svg width="98" height="36" viewBox="0 0 98 36" fill="none" xmlns="http://www.w3.org/2000/svg">
<g opacity="0.6">
<mask id="mask0_20_9396" style="mask-type:luminance" maskUnits="userSpaceOnUse" x="0" y="11" width="19" height="12">
<path d="M0 11.8315H18.9925V22.1031H0V11.8315Z" fill="white"/>
</mask>
<g mask="url(#mask0_20_9396)">
<path d="M9.49814 11.8315L0 16.2993L9.49814 22.1031L18.9925 16.2993L9.49814 11.8315Z" fill="#C3DFE0"/>
</g>
</g>
<g opacity="0.45">
<mask id="mask1_20_9396" style="mask-type:luminance" maskUnits="userSpaceOnUse" x="0" y="0" width="10" height="23">
<path d="M0 0H9.49814V22.1031H0V0Z" fill="white"/>
</mask>
<g mask="url(#mask1_20_9396)">
<path d="M0 16.2993L9.49814 22.1031V0L0 16.2993Z" fill="#C3DFE0"/>
</g>
</g>
<g opacity="0.8">
<mask id="mask2_20_9396" style="mask-type:luminance" maskUnits="userSpaceOnUse" x="9" y="0" width="10" height="23">
<path d="M9.49817 0H18.9963V22.1031H9.49817V0Z" fill="white"/>
</mask>
<g mask="url(#mask2_20_9396)">
<path d="M9.49817 0V22.1031L18.9926 16.2993L9.49817 0Z" fill="#C3DFE0"/>
</g>
</g>
<g opacity="0.45">
<mask id="mask3_20_9396" style="mask-type:luminance" maskUnits="userSpaceOnUse" x="0" y="18" width="10" height="14">
<path d="M0 18.1605H9.49814V32H0V18.1605Z" fill="white"/>
</mask>
<g mask="url(#mask3_20_9396)">
<path d="M0 18.1605L9.49814 32V23.9643L0 18.1605Z" fill="#C3DFE0"/>
</g>
</g>
<g opacity="0.8">
<mask id="mask4_20_9396" style="mask-type:luminance" maskUnits="userSpaceOnUse" x="9" y="18" width="10" height="14">
<path d="M9.49817 18.1605H19V32H9.49817V18.1605Z" fill="white"/>
</mask>
<g mask="url(#mask4_20_9396)">
<path d="M9.49817 23.9643V32L19 18.1605L9.49817 23.9643Z" fill="#C3DFE0"/>
</g>
</g>
<path d="M37.0985 25.26C40.2185 25.26 42.0385 23.726 42.5585 22.946V25H44.8985V17.98C44.8985 16.55 44.1185 15.77 42.6885 15.77H37.3585V18.084H42.5585V18.578C42.5585 20.918 40.7385 22.92 37.4885 22.92H37.2285C33.5885 22.92 31.1185 20.32 31.1185 15.9C31.1185 11.48 33.5885 8.88 37.2285 8.88H37.4885C40.2185 8.88 41.9085 10.284 42.1685 12.78H44.7685C44.5085 9.244 42.0385 6.54 37.3585 6.54C31.8985 6.54 28.5185 10.44 28.5185 15.9C28.5185 21.36 31.8985 25.26 37.0985 25.26ZM53.8244 25.26C57.3344 25.26 60.0644 22.53 60.0644 18.5C60.0644 14.47 57.3344 11.74 53.8244 11.74C50.3144 11.74 47.5844 14.47 47.5844 18.5C47.5844 22.53 50.3144 25.26 53.8244 25.26ZM53.7204 23.18C51.6144 23.18 50.0544 21.49 50.0544 18.5C50.0544 15.51 51.6144 13.82 53.7204 13.82H53.9284C56.0344 13.82 57.5944 15.51 57.5944 18.5C57.5944 21.49 56.0344 23.18 53.9284 23.18H53.7204ZM68.5238 25.26C71.2018 25.26 73.4638 23.778 73.9318 21.152H71.4618C71.2018 22.53 69.9798 23.18 68.7058 23.18H68.4978C66.9118 23.18 65.0138 21.854 64.8578 18.89H73.9578V17.46C73.9578 14.08 71.8258 11.74 68.4458 11.74C65.3778 11.74 62.3878 13.976 62.3878 18.474C62.3878 23.024 65.2998 25.26 68.5238 25.26ZM65.0138 16.94C65.4818 14.626 66.9898 13.82 68.3418 13.82H68.5498C70.0318 13.82 71.3838 14.678 71.4878 16.94H65.0138ZM79.628 25V18.422C79.628 15.822 81.058 14.262 83.398 14.262H84.438V11.87H83.268C81.578 11.87 80.018 12.91 79.498 14.86V12H77.158V25H79.628ZM89.4034 25V6.8H86.9334V25H89.4034ZM95.9064 9.66V6.8H93.1764V9.66H95.9064ZM95.7764 25V12H93.3064V25H95.7764Z" fill="#C3DFE0"/>
</svg>
