<svg width="145" height="37" viewBox="0 0 145 37" fill="none" xmlns="http://www.w3.org/2000/svg">
<g opacity="0.6">
<mask id="mask0_20_9395" style="mask-type:luminance" maskUnits="userSpaceOnUse" x="0" y="12" width="19" height="11">
<path d="M0 12.3315H18.9925V22.6031H0V12.3315Z" fill="white"/>
</mask>
<g mask="url(#mask0_20_9395)">
<path d="M9.49814 12.3315L0 16.7993L9.49814 22.6031L18.9925 16.7993L9.49814 12.3315Z" fill="#C3DFE0"/>
</g>
</g>
<g opacity="0.45">
<mask id="mask1_20_9395" style="mask-type:luminance" maskUnits="userSpaceOnUse" x="0" y="0" width="10" height="23">
<path d="M0 0.5H9.49814V22.6031H0V0.5Z" fill="white"/>
</mask>
<g mask="url(#mask1_20_9395)">
<path d="M0 16.7993L9.49814 22.6031V0.5L0 16.7993Z" fill="#C3DFE0"/>
</g>
</g>
<g opacity="0.8">
<mask id="mask2_20_9395" style="mask-type:luminance" maskUnits="userSpaceOnUse" x="9" y="0" width="10" height="23">
<path d="M9.49817 0.5H18.9963V22.6031H9.49817V0.5Z" fill="white"/>
</mask>
<g mask="url(#mask2_20_9395)">
<path d="M9.49817 0.5V22.6031L18.9926 16.7993L9.49817 0.5Z" fill="#C3DFE0"/>
</g>
</g>
<g opacity="0.45">
<mask id="mask3_20_9395" style="mask-type:luminance" maskUnits="userSpaceOnUse" x="0" y="18" width="10" height="15">
<path d="M0 18.6605H9.49814V32.5H0V18.6605Z" fill="white"/>
</mask>
<g mask="url(#mask3_20_9395)">
<path d="M0 18.6605L9.49814 32.5V24.4643L0 18.6605Z" fill="#C3DFE0"/>
</g>
</g>
<g opacity="0.8">
<mask id="mask4_20_9395" style="mask-type:luminance" maskUnits="userSpaceOnUse" x="9" y="18" width="10" height="15">
<path d="M9.49817 18.6605H19V32.5H9.49817V18.6605Z" fill="white"/>
</mask>
<g mask="url(#mask4_20_9395)">
<path d="M9.49817 24.4643V32.5L19 18.6605L9.49817 24.4643Z" fill="#C3DFE0"/>
</g>
</g>
<path d="M43.1569 25.5V23.16H32.2369V17.31H41.3369V14.97H32.2369V9.64H42.8969V7.3H29.6369V25.5H43.1569ZM53.3113 25.5V23.29H50.8413C50.0613 23.29 49.8013 23.03 49.8013 22.25V14.632H52.9213V12.5H49.8013V8.288H47.3313V12.5H44.4713V14.632H47.3313V22.64C47.3313 24.46 48.3713 25.5 50.1913 25.5H53.3113ZM58.4532 25.5V18.22C58.4532 15.75 60.1432 14.32 61.9892 14.32H62.1972C64.0432 14.32 64.8232 15.49 64.8232 17.31V25.5H67.2932V16.79C67.2932 14.06 65.6032 12.24 62.6132 12.24C60.5332 12.24 59.2332 13.15 58.4532 14.32V7.3H55.9832V25.5H58.4532ZM76.4212 25.76C79.0992 25.76 81.3612 24.278 81.8292 21.652H79.3592C79.0992 23.03 77.8772 23.68 76.6032 23.68H76.3952C74.8092 23.68 72.9112 22.354 72.7552 19.39H81.8552V17.96C81.8552 14.58 79.7232 12.24 76.3432 12.24C73.2752 12.24 70.2852 14.476 70.2852 18.974C70.2852 23.524 73.1972 25.76 76.4212 25.76ZM72.9112 17.44C73.3792 15.126 74.8872 14.32 76.2392 14.32H76.4472C77.9292 14.32 79.2812 15.178 79.3852 17.44H72.9112ZM87.5255 25.5V18.922C87.5255 16.322 88.9555 14.762 91.2955 14.762H92.3355V12.37H91.1655C89.4755 12.37 87.9155 13.41 87.3955 15.36V12.5H85.0555V25.5H87.5255ZM99.7806 25.76C102.459 25.76 104.721 24.278 105.189 21.652H102.719C102.459 23.03 101.237 23.68 99.9626 23.68H99.7546C98.1686 23.68 96.2706 22.354 96.1146 19.39H105.215V17.96C105.215 14.58 103.083 12.24 99.7026 12.24C96.6346 12.24 93.6446 14.476 93.6446 18.974C93.6446 23.524 96.5566 25.76 99.7806 25.76ZM96.2706 17.44C96.7386 15.126 98.2466 14.32 99.5986 14.32H99.8066C101.289 14.32 102.641 15.178 102.745 17.44H96.2706ZM112.705 25.76C114.967 25.76 116.371 24.46 116.865 23.03V25.5H119.335V12.5H116.865V19.52C116.865 22.12 115.253 23.68 113.589 23.68H113.381C111.613 23.68 110.755 22.64 110.755 20.56V12.5H108.285V21.08C108.285 23.81 109.793 25.76 112.705 25.76ZM125.713 25.5V18.22C125.713 15.75 127.403 14.32 128.989 14.32H129.197C131.043 14.32 131.823 15.49 131.823 17.31V25.5H134.293V18.22C134.293 15.75 135.983 14.32 137.569 14.32H137.777C139.623 14.32 140.403 15.49 140.403 17.31V25.5H142.873V16.79C142.873 14.06 141.183 12.24 138.193 12.24C136.607 12.24 134.917 12.864 133.903 14.658C133.045 12.968 131.485 12.24 129.613 12.24C127.793 12.24 126.493 13.15 125.713 14.32V12.5H123.243V25.5H125.713Z" fill="#C3DFE0"/>
</svg>
