<svg width="138" height="19" viewBox="0 0 138 19" fill="none" xmlns="http://www.w3.org/2000/svg">
<g clip-path="url(#clip0_285_15862)">
<path d="M6.96815 18.2739C4.92072 18.2739 3.2432 17.8002 1.9356 16.8526C0.645199 15.8882 0 14.5176 0 12.741C0 12.3687 0.0430132 11.9119 0.12904 11.3705C0.352709 10.1522 0.671007 8.68859 1.08393 6.97964C2.2539 2.32655 5.27343 0 10.1425 0C11.4673 0 12.6545 0.219965 13.704 0.659894C14.7536 1.0829 15.5794 1.72588 16.1816 2.58881C16.7837 3.43483 17.0849 4.45005 17.0849 5.63448C17.0849 5.9898 17.0419 6.43819 16.9559 6.97964C16.6977 8.48555 16.3881 9.94912 16.0268 11.3705C15.4245 13.6886 14.3836 15.4229 12.904 16.5734C11.4243 17.7071 9.44573 18.2739 6.96815 18.2739ZM7.32947 14.6191C8.29296 14.6191 9.11021 14.34 9.78126 13.7816C10.4694 13.2233 10.9598 12.3687 11.2522 11.2181C11.648 9.62766 11.9491 8.2402 12.1556 7.05579C12.2244 6.70046 12.2588 6.33666 12.2588 5.96442C12.2588 4.42467 11.4415 3.65479 9.80702 3.65479C8.84353 3.65479 8.01767 3.93398 7.32947 4.49235C6.65845 5.05073 6.17671 5.9052 5.88422 7.05579C5.57452 8.18944 5.26483 9.57691 4.95513 11.2181C4.8863 11.5566 4.8519 11.9119 4.8519 12.2841C4.8519 13.8409 5.67775 14.6191 7.32947 14.6191Z" fill="#C3DFE0"/>
<path d="M19.7037 18.0202C19.5143 18.0202 19.3682 17.961 19.2649 17.8425C19.1789 17.7071 19.1531 17.5548 19.1875 17.3856L22.749 0.888328C22.7834 0.702204 22.878 0.549922 23.0329 0.431479C23.1877 0.313037 23.3512 0.253815 23.5232 0.253815H30.3881C32.2979 0.253815 33.8292 0.642983 34.9819 1.42132C36.1519 2.19966 36.7369 3.32486 36.7369 4.79692C36.7369 5.21993 36.6853 5.65987 36.5821 6.11672C36.1519 8.06255 35.283 9.50082 33.9755 10.4314C32.6851 11.362 30.9129 11.8273 28.659 11.8273H25.1749L23.9878 17.3856C23.9533 17.5718 23.8588 17.724 23.7038 17.8425C23.549 17.961 23.3856 18.0202 23.2135 18.0202H19.7037ZM28.8396 8.32482C29.5623 8.32482 30.1903 8.13023 30.7236 7.74106C31.2742 7.3519 31.6355 6.79352 31.8076 6.06595C31.8592 5.77831 31.885 5.5245 31.885 5.30454C31.885 4.81385 31.7387 4.4416 31.4463 4.18779C31.1538 3.91707 30.6548 3.78171 29.9494 3.78171H26.8524L25.8717 8.32482H28.8396Z" fill="#C3DFE0"/>
<path d="M42.5517 18.0202C42.3625 18.0202 42.2162 17.961 42.113 17.8425C42.0098 17.7071 41.9754 17.5548 42.0098 17.3856L44.8745 4.23856H40.2806C40.0914 4.23856 39.9451 4.17933 39.8419 4.06089C39.7559 3.92553 39.7301 3.77325 39.7645 3.60404L40.3581 0.888328C40.3925 0.702204 40.4871 0.549922 40.6419 0.431479C40.7967 0.313037 40.9602 0.253815 41.1323 0.253815H55.017C55.2063 0.253815 55.3524 0.313037 55.4558 0.431479C55.5246 0.533001 55.559 0.634522 55.559 0.736045C55.559 0.786805 55.5503 0.837567 55.5331 0.888328L54.9395 3.60404C54.9051 3.79017 54.8106 3.94245 54.6556 4.06089C54.518 4.17933 54.3546 4.23856 54.1654 4.23856H49.5973L46.7326 17.3856C46.6982 17.5718 46.6036 17.724 46.4488 17.8425C46.2938 17.961 46.1305 18.0202 45.9584 18.0202H42.5517Z" fill="#C3DFE0"/>
<path d="M56.2172 18.0202C56.028 18.0202 55.8818 17.961 55.7786 17.8425C55.6753 17.7071 55.6408 17.5548 55.6753 17.3856L59.2626 0.888328C59.297 0.702204 59.3917 0.549922 59.5465 0.431479C59.7014 0.313037 59.8647 0.253815 60.0369 0.253815H63.5209C63.7102 0.253815 63.8564 0.313037 63.9597 0.431479C64.0285 0.533001 64.0629 0.634522 64.0629 0.736045C64.0629 0.786805 64.0542 0.837567 64.037 0.888328L60.4755 17.3856C60.4411 17.5718 60.3466 17.724 60.1917 17.8425C60.0369 17.961 59.8734 18.0202 59.7014 18.0202H56.2172Z" fill="#C3DFE0"/>
<path d="M66.0444 18.0202C65.8551 18.0202 65.7089 17.961 65.6056 17.8425C65.5024 17.724 65.468 17.5718 65.5024 17.3856L69.0639 0.888328C69.0983 0.702204 69.1929 0.549922 69.3477 0.431479C69.5027 0.313037 69.6747 0.253815 69.8639 0.253815H72.6512C73.0642 0.253815 73.3308 0.439939 73.4512 0.812187L76.2643 8.80704L82.5357 0.812187C82.6217 0.676824 82.7421 0.549922 82.8969 0.431479C83.069 0.313037 83.2754 0.253815 83.5164 0.253815H86.3295C86.5187 0.253815 86.6649 0.313037 86.7681 0.431479C86.8369 0.533001 86.8714 0.634522 86.8714 0.736045C86.8714 0.786805 86.8628 0.837567 86.8456 0.888328L83.2841 17.3856C83.2497 17.5718 83.155 17.724 83.0002 17.8425C82.8453 17.961 82.6819 18.0202 82.5098 18.0202H79.387C79.1978 18.0202 79.0516 17.961 78.9483 17.8425C78.8623 17.7071 78.8365 17.5548 78.8709 17.3856L80.884 8.02025L76.9353 13.1725C76.7633 13.3586 76.5998 13.5024 76.445 13.6039C76.2901 13.7055 76.1095 13.7563 75.903 13.7563H74.561C74.1997 13.7563 73.9502 13.5617 73.8126 13.1725L71.9802 7.79183L69.9156 17.3856C69.8811 17.5718 69.7865 17.724 69.6316 17.8425C69.4768 17.961 69.3133 18.0202 69.1413 18.0202H66.0444Z" fill="#C3DFE0"/>
<path d="M88.8245 18.0202C88.6352 18.0202 88.489 17.961 88.3858 17.8425C88.2826 17.7071 88.2481 17.5548 88.2826 17.3856L91.8698 0.888328C91.9042 0.702204 91.9989 0.549922 92.1536 0.431479C92.3082 0.313037 92.472 0.253815 92.644 0.253815H96.128C96.3176 0.253815 96.4638 0.313037 96.5669 0.431479C96.6359 0.533001 96.6699 0.634522 96.6699 0.736045C96.6699 0.786805 96.6616 0.837567 96.6442 0.888328L93.0828 17.3856C93.0488 17.5718 92.954 17.724 92.7986 17.8425C92.644 17.961 92.4802 18.0202 92.3082 18.0202H88.8245Z" fill="#C3DFE0"/>
<path d="M105.026 18.2739C103.512 18.2739 102.213 18.0709 101.129 17.6648C100.062 17.2588 99.2533 16.7173 98.7031 16.0405C98.1695 15.3637 97.9027 14.6107 97.9027 13.7816C97.9027 13.6463 97.9202 13.4432 97.9542 13.1725C97.9892 13.0202 98.0582 12.8933 98.1612 12.7918C98.2817 12.6903 98.4188 12.6395 98.5743 12.6395H101.877C102.084 12.6395 102.239 12.6734 102.342 12.741C102.462 12.8087 102.583 12.9271 102.703 13.0963C102.824 13.5362 103.099 13.9 103.529 14.1877C103.977 14.4754 104.587 14.6191 105.361 14.6191C106.342 14.6191 107.134 14.4669 107.736 14.1623C108.338 13.8578 108.7 13.4432 108.819 12.9186C108.837 12.851 108.845 12.7495 108.845 12.6141C108.845 12.1911 108.579 11.8612 108.046 11.6243C107.512 11.3705 106.531 11.0744 105.104 10.736C103.435 10.3806 102.17 9.84761 101.309 9.13701C100.449 8.40941 100.02 7.46187 100.02 6.29437C100.02 5.88828 100.071 5.47373 100.174 5.05072C100.518 3.47713 101.37 2.24195 102.729 1.34516C104.105 0.448389 105.877 0 108.046 0C109.353 0 110.515 0.228424 111.53 0.685274C112.545 1.14213 113.327 1.72588 113.879 2.43653C114.446 3.13026 114.73 3.82399 114.73 4.51773C114.73 4.72078 114.721 4.8646 114.704 4.9492C114.67 5.10148 114.592 5.22838 114.472 5.32991C114.369 5.43143 114.239 5.48219 114.085 5.48219H110.626C110.248 5.48219 109.99 5.33837 109.853 5.05072C109.835 4.66155 109.628 4.33161 109.233 4.06088C108.837 3.79016 108.321 3.65479 107.684 3.65479C106.927 3.65479 106.3 3.79016 105.8 4.06088C105.319 4.33161 105.017 4.72924 104.897 5.25376C104.88 5.33837 104.871 5.44835 104.871 5.58371C104.871 5.9898 105.112 6.3282 105.594 6.59894C106.093 6.85274 106.962 7.115 108.2 7.38573C110.128 7.75797 111.53 8.29097 112.407 8.9847C113.302 9.67842 113.749 10.6006 113.749 11.7511C113.749 12.1404 113.697 12.5633 113.594 13.0202C113.216 14.7461 112.295 16.0574 110.832 16.9542C109.388 17.834 107.452 18.2739 105.026 18.2739Z" fill="#C3DFE0"/>
<path d="M117.173 18.0202C116.984 18.0202 116.837 17.961 116.734 17.8425C116.631 17.724 116.596 17.5718 116.631 17.3856L120.192 0.888328C120.227 0.702204 120.321 0.549922 120.477 0.431479C120.631 0.313037 120.803 0.253815 120.993 0.253815H123.78C124.193 0.253815 124.459 0.439939 124.58 0.812187L127.393 8.80704L133.664 0.812187C133.751 0.676824 133.871 0.549922 134.026 0.431479C134.198 0.313037 134.404 0.253815 134.645 0.253815H137.458C137.648 0.253815 137.794 0.313037 137.897 0.431479C137.966 0.533001 138 0.634522 138 0.736045C138 0.786805 137.992 0.837567 137.974 0.888328L134.413 17.3856C134.378 17.5718 134.283 17.724 134.129 17.8425C133.974 17.961 133.81 18.0202 133.638 18.0202H130.516C130.326 18.0202 130.18 17.961 130.077 17.8425C129.99 17.7071 129.965 17.5548 130 17.3856L132.013 8.02025L128.064 13.1725C127.892 13.3586 127.728 13.5024 127.574 13.6039C127.419 13.7055 127.238 13.7563 127.032 13.7563H125.69C125.328 13.7563 125.079 13.5617 124.942 13.1725L123.109 7.79183L121.044 17.3856C121.009 17.5718 120.915 17.724 120.76 17.8425C120.606 17.961 120.442 18.0202 120.27 18.0202H117.173Z" fill="#C3DFE0"/>
</g>
<defs>
<clipPath id="clip0_285_15862">
<rect width="138" height="19" fill="white"/>
</clipPath>
</defs>
</svg>
