<svg width="151" height="37" viewBox="0 0 151 37" fill="none" xmlns="http://www.w3.org/2000/svg">
<path d="M48.7083 30.9804V12.1949H51.5416L51.8115 13.7112H51.9464C52.7559 12.6726 54.1317 11.9287 56.0471 11.9287C59.5526 11.9287 62.3595 14.7499 62.3595 18.9257C62.3595 23.1016 59.5551 25.9228 56.0471 25.9228C54.1582 25.9228 52.8378 25.1503 52.1367 24.2733H52.0018V30.978H48.7107L48.7083 30.9804ZM59.066 18.9281C59.066 16.4801 57.4734 14.9376 55.5315 14.9376C53.5896 14.9376 51.997 16.4801 51.997 18.9281C51.997 21.3761 53.5896 22.9186 55.5315 22.9186C57.4734 22.9186 59.066 21.3761 59.066 18.9281Z" fill="#C3DFE0"/>
<path d="M64.0292 18.9281C64.0292 14.8568 66.9951 11.9311 70.9608 11.9311C74.9266 11.9311 77.8925 14.8568 77.8925 18.9281C77.8925 22.9994 74.9266 25.9251 70.9608 25.9251C66.9951 25.9251 64.0292 22.9709 64.0292 18.9281ZM74.5748 18.9281C74.5748 16.5324 72.9557 14.9376 70.9608 14.9376C68.9659 14.9376 67.3203 16.5348 67.3203 18.9281C67.3203 21.3214 68.9659 22.8925 70.9608 22.8925C72.9557 22.8925 74.5748 21.3238 74.5748 18.9281Z" fill="#C3DFE0"/>
<path d="M80.2777 25.6589V7.03268H83.5689V25.6589H80.2777Z" fill="#C3DFE0"/>
<path d="M95.7865 12.1949H99.2921L93.3579 28.5585C92.7652 30.1818 91.9557 30.9804 89.8234 30.9804H86.6407V27.9739H89.3392C89.8258 27.9739 90.0933 27.7338 90.2571 27.3345L90.58 26.4575L85.024 12.1949H88.5296L92.0641 21.5354H92.6038L95.7865 12.1949Z" fill="#C3DFE0"/>
<path d="M99.921 26.3244H103.265C103.4 27.2014 104.289 28.3993 106.395 28.3993C108.363 28.3993 109.66 27.1753 109.66 25.312V23.4225H109.525C108.797 24.1949 107.448 24.8865 105.72 24.8865C102.215 24.8865 99.5162 22.2246 99.5162 18.3934C99.5162 14.5621 102.215 11.9287 105.72 11.9287C107.527 11.9287 108.85 12.6465 109.686 13.659H109.821L110.091 12.1949H112.951V25.312C112.951 28.877 110.522 31.2466 106.395 31.2466C101.783 31.2466 100.003 28.2662 99.921 26.3244ZM109.66 18.3957C109.66 16.2947 108.149 14.8307 106.233 14.8307C104.318 14.8307 102.834 16.2947 102.834 18.3957C102.834 20.4967 104.345 21.9869 106.233 21.9869C108.122 21.9869 109.66 20.5229 109.66 18.3957Z" fill="#C3DFE0"/>
<path d="M115.237 18.9281C115.237 14.8568 118.203 11.9311 122.169 11.9311C126.134 11.9311 129.1 14.8568 129.1 18.9281C129.1 22.9994 126.134 25.9251 122.169 25.9251C118.203 25.9251 115.237 22.9709 115.237 18.9281ZM125.783 18.9281C125.783 16.5324 124.164 14.9376 122.169 14.9376C120.174 14.9376 118.528 16.5348 118.528 18.9281C118.528 21.3214 120.174 22.8925 122.169 22.8925C124.164 22.8925 125.783 21.3238 125.783 18.9281Z" fill="#C3DFE0"/>
<path d="M131.392 25.659V12.1949H134.223L134.492 13.4712H134.627C135.167 12.8604 136.516 11.9287 138.564 11.9287C141.694 11.9287 143.959 14.1628 143.959 17.5686V25.6566H140.667V17.9941C140.667 16.2638 139.427 15.0137 137.728 15.0137C136.03 15.0137 134.68 16.3185 134.68 17.9941V25.6566H131.389L131.392 25.659Z" fill="#C3DFE0"/>
<path d="M30.9997 24.0879L39.0903 19.4795C39.5191 19.2347 39.7842 18.7807 39.7842 18.2935V9.07664C39.7842 8.58942 39.5191 8.13547 39.0903 7.89067L30.9997 3.28223C30.5709 3.03743 30.0384 3.0398 29.612 3.28223L21.5215 7.89067C21.0926 8.13547 20.8276 8.58942 20.8276 9.07664V25.5472L15.1536 28.7772L9.47962 25.5472V19.085L15.1536 15.855L18.8953 17.9869V13.6518L15.8475 11.9144C15.6379 11.7956 15.3969 11.7314 15.1536 11.7314C14.9103 11.7314 14.6693 11.7956 14.4597 11.9144L6.36918 16.5229C5.94032 16.7677 5.67529 17.2216 5.67529 17.7088V26.9257C5.67529 27.4129 5.94032 27.8669 6.36918 28.1117L14.4597 32.7201C14.8886 32.9626 15.4186 32.9626 15.8475 32.7201L23.938 28.1117C24.3669 27.8669 24.6319 27.4129 24.6319 26.9257V10.4528L24.7331 10.3957L30.3035 7.22281L35.9774 10.4528V16.915L30.3035 20.145L26.5666 18.0178V22.3529L29.6096 24.0856C30.0384 24.328 30.5709 24.328 30.9973 24.0856L30.9997 24.0879Z" fill="#C3DFE0"/>
</svg>
