<svg width="44" height="40" viewBox="0 0 44 40" fill="none" xmlns="http://www.w3.org/2000/svg">
<path opacity="0.8" d="M43.525 4.30246C43.7203 4.1072 43.7203 3.79062 43.525 3.59536L40.343 0.413377C40.1478 0.218114 39.8312 0.218115 39.6359 0.413377C39.4407 0.608639 39.4407 0.925221 39.6359 1.12048L42.4644 3.94891L39.6359 6.77734C39.4407 6.9726 39.4407 7.28918 39.6359 7.48444C39.8312 7.67971 40.1478 7.67971 40.343 7.48444L43.525 4.30246ZM0.744812 4.44891L1.27515 4.44891L1.27515 3.44891L0.744812 3.44891L0.744812 4.44891ZM5.51781 4.44891L6.57848 4.44891L6.57848 3.44891L5.51781 3.44891L5.51781 4.44891ZM10.8211 4.44891L11.8818 4.44891L11.8818 3.44891L10.8211 3.44891L10.8211 4.44891ZM16.1245 4.44891L17.1851 4.44891L17.1851 3.44891L16.1245 3.44891L16.1245 4.44891ZM21.4278 4.44891L22.4885 4.44891L22.4885 3.44891L21.4278 3.44891L21.4278 4.44891ZM26.7311 4.44891L27.7918 4.44891L27.7918 3.44891L26.7311 3.44891L26.7311 4.44891ZM32.0345 4.44891L33.0951 4.44891L33.0951 3.44891L32.0345 3.44891L32.0345 4.44891ZM37.3378 4.44891L38.3985 4.44891L38.3985 3.44891L37.3378 3.44891L37.3378 4.44891ZM42.6411 4.44891L43.1715 4.44891L43.1715 3.44891L42.6411 3.44891L42.6411 4.44891Z" fill="#C3DFE0"/>
<path opacity="0.8" d="M43.525 20.3025C43.7203 20.1072 43.7203 19.7906 43.525 19.5954L40.343 16.4134C40.1478 16.2181 39.8312 16.2181 39.6359 16.4134C39.4407 16.6086 39.4407 16.9252 39.6359 17.1205L42.4644 19.9489L39.6359 22.7773C39.4407 22.9726 39.4407 23.2892 39.6359 23.4844C39.8312 23.6797 40.1478 23.6797 40.343 23.4844L43.525 20.3025ZM0.744812 20.4489L1.27515 20.4489L1.27515 19.4489L0.744812 19.4489L0.744812 20.4489ZM5.51781 20.4489L6.57848 20.4489L6.57848 19.4489L5.51781 19.4489L5.51781 20.4489ZM10.8211 20.4489L11.8818 20.4489L11.8818 19.4489L10.8211 19.4489L10.8211 20.4489ZM16.1245 20.4489L17.1851 20.4489L17.1851 19.4489L16.1245 19.4489L16.1245 20.4489ZM21.4278 20.4489L22.4885 20.4489L22.4885 19.4489L21.4278 19.4489L21.4278 20.4489ZM26.7311 20.4489L27.7918 20.4489L27.7918 19.4489L26.7311 19.4489L26.7311 20.4489ZM32.0345 20.4489L33.0951 20.4489L33.0951 19.4489L32.0345 19.4489L32.0345 20.4489ZM37.3378 20.4489L38.3985 20.4489L38.3985 19.4489L37.3378 19.4489L37.3378 20.4489ZM42.6411 20.4489L43.1715 20.4489L43.1715 19.4489L42.6411 19.4489L42.6411 20.4489Z" fill="#C3DFE0"/>
<path opacity="0.8" d="M43.525 36.3025C43.7203 36.1072 43.7203 35.7906 43.525 35.5954L40.343 32.4134C40.1478 32.2181 39.8312 32.2181 39.6359 32.4134C39.4407 32.6086 39.4407 32.9252 39.6359 33.1205L42.4644 35.9489L39.6359 38.7773C39.4407 38.9726 39.4407 39.2892 39.6359 39.4844C39.8312 39.6797 40.1478 39.6797 40.343 39.4844L43.525 36.3025ZM0.744824 36.4489L1.27516 36.4489L1.27516 35.4489L0.744824 35.4489L0.744824 36.4489ZM5.51782 36.4489L6.57849 36.4489L6.57849 35.4489L5.51782 35.4489L5.51782 36.4489ZM10.8211 36.4489L11.8818 36.4489L11.8818 35.4489L10.8211 35.4489L10.8211 36.4489ZM16.1245 36.4489L17.1851 36.4489L17.1851 35.4489L16.1245 35.4489L16.1245 36.4489ZM21.4278 36.4489L22.4885 36.4489L22.4885 35.4489L21.4278 35.4489L21.4278 36.4489ZM26.7311 36.4489L27.7918 36.4489L27.7918 35.4489L26.7311 35.4489L26.7311 36.4489ZM32.0345 36.4489L33.0951 36.4489L33.0951 35.4489L32.0345 35.4489L32.0345 36.4489ZM37.3378 36.4489L38.3985 36.4489L38.3985 35.4489L37.3378 35.4489L37.3378 36.4489ZM42.6411 36.4489L43.1715 36.4489L43.1715 35.4489L42.6411 35.4489L42.6411 36.4489Z" fill="#C3DFE0"/>
</svg>
