<svg width="136" height="26" viewBox="0 0 136 26" fill="none" xmlns="http://www.w3.org/2000/svg">
<path d="M20.9674 4.39923H36.8846L35.8132 8.69848H19.896L20.9674 4.39923Z" fill="url(#paint0_linear_294_9891)"/>
<path d="M1.83142 17.2993H17.7486L16.6749 21.6008H0.76001L1.83142 17.2993Z" fill="url(#paint1_linear_294_9891)"/>
<path d="M9.45138 4.39925H20.9674L22.0388 0.100006H9.45138C8.53852 0.100006 7.67097 0.290278 6.88497 0.632315C4.59944 1.62218 3.00024 3.89865 3.00024 6.54887C3.00024 8.06879 3.52802 9.46638 4.40916 10.5695C5.59157 12.0509 7.41048 13 9.45138 13H18.8245L19.896 8.70076H9.45138C8.26444 8.70076 7.30175 7.73807 7.30175 6.55114C7.29949 5.36194 8.26218 4.39925 9.45138 4.39925Z" fill="white"/>
<path d="M28.1953 21.6008H16.6793L15.6079 25.9H28.1953C29.1082 25.9 29.9757 25.7097 30.7617 25.3677C33.0473 24.3756 34.6465 22.0991 34.6465 19.4489C34.6465 17.929 34.1187 16.5314 33.2375 15.4282C32.0551 13.9468 30.2362 12.9977 28.1953 12.9977H18.8222L17.7507 17.2993H28.1953C29.3823 17.2993 30.3449 18.2619 30.3449 19.4489C30.3449 20.6381 29.3823 21.6008 28.1953 21.6008Z" fill="white"/>
<path d="M55.6943 21.8408C54.3329 21.8408 53.1528 21.6234 52.1539 21.1885C51.1549 20.7536 50.3803 20.108 49.8321 19.2473C49.2817 18.3865 48.9985 17.3423 48.9827 16.1123H51.1957C51.1957 17.2924 51.6148 18.2053 52.4506 18.8531C53.2864 19.501 54.3918 19.8226 55.7668 19.8226H56.0137C57.178 19.8226 58.0863 19.5621 58.7409 19.0366C59.3955 18.5111 59.724 17.8474 59.724 17.0455C59.724 16.3252 59.4907 15.7408 59.0218 15.2991C58.5552 14.8574 57.8371 14.538 56.8722 14.341L54.12 13.7769C52.727 13.4825 51.6646 12.9502 50.9375 12.18C50.2081 11.4099 49.8434 10.3702 49.8434 9.05864C49.8434 8.15711 50.0971 7.33486 50.6045 6.58963C51.1119 5.8444 51.8209 5.25093 52.7315 4.80923C53.6421 4.36526 54.7022 4.14554 55.914 4.14554C57.1576 4.14554 58.2448 4.36299 59.1713 4.7979C60.0955 5.23281 60.8271 5.85346 61.3571 6.66438C61.8895 7.47757 62.1726 8.42213 62.2066 9.50487H59.9935C59.9278 8.49009 59.5292 7.67916 58.8021 7.0721C58.0727 6.46505 57.1508 6.16152 56.0363 6.16152H55.7917C55.0533 6.16152 54.4032 6.28383 53.8369 6.52847C53.2706 6.77537 52.8334 7.11741 52.5208 7.56138C52.2082 8.00308 52.0542 8.49462 52.0542 9.03599C52.0542 9.70873 52.2762 10.2569 52.7179 10.6827C53.1596 11.1086 53.7825 11.4031 54.5844 11.5662L57.3365 12.1075C58.827 12.402 59.9664 12.9479 60.7546 13.743C61.5406 14.538 61.9348 15.6072 61.9348 16.9504C61.9348 17.9493 61.6765 18.8169 61.1601 19.5553C60.6436 20.2938 59.9143 20.8578 58.972 21.2519C58.0319 21.6438 56.9379 21.8408 55.6943 21.8408Z" fill="white"/>
<path d="M68.0485 21.8408C67.147 21.8408 66.3814 21.6505 65.7517 21.2745C65.1197 20.8985 64.644 20.3775 64.3246 19.7138C64.0052 19.0501 63.8467 18.2845 63.8467 17.4147V9.30546H65.9351V16.9231C65.9351 17.9719 66.1503 18.7579 66.5852 19.2834C67.0201 19.8089 67.6793 20.0694 68.5627 20.0694H68.7847C69.3419 20.0694 69.8674 19.9018 70.359 19.5643C70.8505 19.2291 71.2514 18.7489 71.5618 18.1259C71.8721 17.503 72.0284 16.7736 72.0284 15.9378V9.30093H74.1168V21.5893H72.0284V19.254C71.7498 20.0241 71.2673 20.647 70.5787 21.1205C69.8901 21.6007 69.0474 21.8408 68.0485 21.8408Z" fill="white"/>
<path d="M81.6619 21.8409C80.45 21.8409 79.4081 21.5622 78.5405 21.005C77.6707 20.4478 77.0093 19.6867 76.5494 18.7195C76.0919 17.7523 75.8608 16.6627 75.8608 15.4509C75.8608 14.239 76.0896 13.1495 76.5494 12.1823C77.007 11.2151 77.6707 10.454 78.5405 9.89675C79.4081 9.33953 80.45 9.06091 81.6619 9.06091C82.5793 9.06091 83.3992 9.23306 84.1196 9.57737C84.8399 9.92167 85.4175 10.4177 85.8524 11.0633C86.2873 11.7111 86.5455 12.4609 86.6271 13.3126H84.5386C84.4254 12.5764 84.1173 11.9784 83.6167 11.5186C83.1161 11.061 82.5068 10.83 81.7842 10.83H81.5622C80.7762 10.83 80.108 11.0406 79.5598 11.4574C79.0094 11.8765 78.6039 12.4382 78.3412 13.1404C78.0807 13.8449 77.9493 14.615 77.9493 15.4509C77.9493 16.7624 78.2596 17.861 78.8848 18.7444C79.5055 19.6301 80.4002 20.0718 81.5622 20.0718H81.7842C82.5045 20.0718 83.1116 19.8385 83.6031 19.3696C84.0946 18.903 84.405 18.3095 84.5363 17.5892H86.6248C86.4776 18.9007 85.9588 19.9359 85.0641 20.697C84.1739 21.4581 83.0391 21.8409 81.6619 21.8409Z" fill="white"/>
<path d="M93.2957 21.8409C92.0838 21.8409 91.0418 21.5622 90.1743 21.005C89.3045 20.4478 88.6431 19.6867 88.1832 18.7195C87.7257 17.7523 87.4946 16.6627 87.4946 15.4509C87.4946 14.239 87.7234 13.1495 88.1832 12.1823C88.6408 11.2151 89.3045 10.454 90.1743 9.89675C91.0418 9.33953 92.0838 9.06091 93.2957 9.06091C94.213 9.06091 95.033 9.23306 95.7533 9.57737C96.4737 9.92167 97.0513 10.4177 97.4862 11.0633C97.9211 11.7111 98.1793 12.4609 98.2609 13.3126H96.1724C96.0591 12.5764 95.7511 11.9784 95.2505 11.5186C94.7499 11.061 94.1406 10.83 93.418 10.83H93.196C92.41 10.83 91.7418 11.0406 91.1936 11.4574C90.6432 11.8765 90.2377 12.4382 89.975 13.1404C89.7145 13.8449 89.5831 14.615 89.5831 15.4509C89.5831 16.7624 89.8934 17.861 90.5186 18.7444C91.1392 19.6301 92.034 20.0718 93.196 20.0718H93.418C94.1383 20.0718 94.7454 19.8385 95.2369 19.3696C95.7284 18.903 96.0388 18.3095 96.1701 17.5892H98.2586C98.1114 18.9007 97.5926 19.9359 96.6979 20.697C95.8054 21.4581 94.6729 21.8409 93.2957 21.8409Z" fill="white"/>
<path d="M99.7422 6.90675V4.39923H102.078V6.90675H99.7422ZM99.8645 21.5939V9.30553H101.953V21.5939H99.8645Z" fill="white"/>
<path d="M104.318 21.5939V9.30549H106.406V11.1493C106.798 10.5106 107.335 10.0032 108.015 9.62488C108.694 9.24887 109.51 9.05859 110.461 9.05859C111.362 9.05859 112.142 9.23528 112.796 9.58864C113.451 9.942 113.956 10.4449 114.309 11.0995C114.663 11.7541 114.837 12.5333 114.837 13.4349V21.5939H112.749V13.9264C112.749 13.2536 112.654 12.6896 112.466 12.2298C112.278 11.7722 111.985 11.4234 111.594 11.1856C111.202 10.95 110.71 10.8299 110.119 10.8299H109.922C109.249 10.8299 108.647 11.0021 108.117 11.3464C107.584 11.6907 107.167 12.1777 106.864 12.8074C106.56 13.4394 106.409 14.1574 106.409 14.9593V21.5962H104.318V21.5939Z" fill="white"/>
<path d="M122.24 21.8409C121.028 21.8409 119.986 21.5622 119.118 21.005C118.249 20.4478 117.587 19.6867 117.127 18.7195C116.67 17.7523 116.439 16.6627 116.439 15.4509C116.439 14.239 116.67 13.1495 117.127 12.1823C117.585 11.2151 118.249 10.454 119.118 9.89675C119.986 9.33953 121.028 9.06091 122.24 9.06091C123.157 9.06091 123.977 9.23306 124.697 9.57737C125.418 9.92167 125.995 10.4177 126.43 11.0633C126.865 11.7111 127.123 12.4609 127.205 13.3126H125.116C125.003 12.5764 124.695 11.9784 124.195 11.5186C123.694 11.061 123.085 10.83 122.362 10.83H122.14C121.354 10.83 120.686 11.0406 120.138 11.4574C119.587 11.8765 119.182 12.4382 118.919 13.1404C118.659 13.8449 118.527 14.615 118.527 15.4509C118.527 16.7624 118.838 17.861 119.463 18.7444C120.083 19.6301 120.978 20.0718 122.14 20.0718H122.362C123.082 20.0718 123.689 19.8385 124.181 19.3696C124.673 18.903 124.983 18.3095 125.114 17.5892H127.203C127.055 18.9007 126.537 19.9359 125.642 20.697C124.752 21.4581 123.617 21.8409 122.24 21.8409Z" fill="white"/>
<path d="M132.852 21.594C132.016 21.594 131.377 21.3765 130.936 20.9416C130.492 20.509 130.272 19.8815 130.272 19.0615V11.0995H127.52V9.30555H130.272V5.32343H132.36V9.30555H135.359V11.0995H132.36V18.7693C132.36 19.1295 132.433 19.3832 132.582 19.5304C132.73 19.6776 132.983 19.7524 133.343 19.7524H135.729V21.5962H132.852V21.594Z" fill="white"/>
<defs>
<linearGradient id="paint0_linear_294_9891" x1="19.406" y1="8.69848" x2="38.3675" y2="8.69848" gradientUnits="userSpaceOnUse">
<stop stop-color="white"/>
<stop offset="1" stop-color="white" stop-opacity="0"/>
</linearGradient>
<linearGradient id="paint1_linear_294_9891" x1="16.3692" y1="21.6008" x2="-0.166398" y2="21.6008" gradientUnits="userSpaceOnUse">
<stop stop-color="white"/>
<stop offset="1" stop-color="white" stop-opacity="0"/>
</linearGradient>
</defs>
</svg>
