<svg width="150" height="30" viewBox="0 0 646 120" fill="none" xmlns="http://www.w3.org/2000/svg">
    <path d="M73.8196 19.9495H147.639L142.67 39.8882H68.8506L73.8196 19.9495Z" fill="white" />
    <path d="M31.946 39.8882H68.8505L63.8816 59.8374H26.9666L31.946 39.8882Z" fill="white" />
    <path d="M63.8815 59.8372H100.786L95.8171 79.7759H58.902L63.8815 59.8372Z" fill="white" />
    <path d="M21.9977 79.7759H58.9022L53.9333 99.7251H17.0287L21.9977 79.7759Z" fill="white" />
    <path d="M53.9334 99.7253H90.8379L85.869 119.664H48.954L53.9334 99.7253Z" fill="url(#paint0_linear_210_1416)" />
    <path d="M4.97943 0H78.7989L73.8195 19.9492H0L4.97943 0Z" fill="url(#paint1_linear_210_1416)" />
    <path d="M226.354 99.7146V29.2672H197.633V19.9177H265.338V29.2672H236.617V99.7146H226.354Z" fill="white" />
    <path d="M275.381 100.86C270.517 100.86 266.095 99.736 262.103 97.4984C258.111 95.2503 254.938 91.8886 252.585 87.4134C250.221 82.9277 249.045 77.4966 249.045 71.12C249.045 64.8064 250.263 59.4278 252.69 54.9946C255.117 50.551 258.331 47.1998 262.323 44.9622C266.315 42.7246 270.591 41.6006 275.15 41.6006C279.94 41.6006 284.132 42.6616 287.746 44.7941C291.36 46.9162 294.122 49.9101 296.066 53.7445C298.009 57.5789 298.976 61.97 298.976 66.9074C298.976 67.8109 298.976 68.7458 298.976 69.6913C298.976 70.6473 298.976 71.6137 298.976 72.6012H258.741C258.899 77.0134 259.771 80.7112 261.367 83.7156C262.964 86.7201 265.013 88.9577 267.523 90.4389C270.034 91.9201 272.618 92.666 275.276 92.666H276.19C279.457 92.666 282.273 91.8676 284.626 90.2708C286.979 88.6741 288.502 86.2789 289.185 83.0853H298.871C297.799 88.7056 295.131 93.0757 290.834 96.1957C286.527 99.2947 281.38 100.86 275.381 100.86ZM289.28 64.7224C289.048 59.932 287.683 56.2552 285.182 53.671C282.672 51.0867 279.478 49.7946 275.612 49.7946H274.698C271.053 49.7946 267.786 50.9922 264.897 53.3873C262.008 55.7825 260.107 59.5643 259.193 64.7329H289.28V64.7224Z" fill="white" />
    <path d="M307.632 99.7146V19.9281H317.318V99.7146H307.632Z" fill="white" />
    <path d="M351.974 100.86C347.11 100.86 342.688 99.736 338.696 97.4984C334.704 95.2503 331.531 91.8886 329.178 87.4134C326.814 82.9277 325.638 77.4966 325.638 71.12C325.638 64.8064 326.856 59.4278 329.283 54.9946C331.71 50.551 334.924 47.1998 338.916 44.9622C342.908 42.7246 347.184 41.6006 351.743 41.6006C356.533 41.6006 360.725 42.6616 364.339 44.7941C367.953 46.9162 370.715 49.9101 372.659 53.7445C374.602 57.5789 375.569 61.97 375.569 66.9074C375.569 67.8109 375.569 68.7458 375.569 69.6913C375.569 70.6473 375.569 71.6137 375.569 72.6012H335.334C335.492 77.0134 336.364 80.7112 337.96 83.7156C339.557 86.7201 341.606 88.9577 344.116 90.4389C346.627 91.9201 349.211 92.666 351.869 92.666H352.783C356.05 92.666 358.866 91.8676 361.219 90.2708C363.572 88.6741 365.095 86.2789 365.778 83.0853H375.464C374.403 88.7056 371.724 93.0757 367.427 96.1957C363.131 99.2947 357.973 100.86 351.974 100.86ZM365.883 64.7224C365.652 59.932 364.286 56.2552 361.786 53.671C359.275 51.0867 356.082 49.7946 352.216 49.7946H351.302C347.657 49.7946 344.39 50.9922 341.501 53.3873C338.612 55.7825 336.71 59.5643 335.796 64.7329H365.883V64.7224Z" fill="white" />
    <path d="M384.225 119.664V42.7244H393.911V51.0444C395.423 48.3131 397.976 46.0545 401.548 44.2686C405.12 42.4827 408.849 41.5898 412.725 41.5898C417.589 41.5898 421.886 42.7874 425.605 45.1826C429.323 47.5777 432.244 51.0024 434.376 55.4461C436.499 59.8897 437.57 65.1528 437.57 71.2353C437.57 77.3177 436.467 82.5808 434.261 87.0245C432.055 91.4681 428.998 94.8823 425.09 97.288C421.172 99.6832 416.833 100.881 412.032 100.881C408.156 100.881 404.552 99.9878 401.201 98.2019C397.861 96.4161 395.423 94.1575 393.911 91.4261V119.695H384.225V119.664ZM411.475 92.6447C414.742 92.6447 417.61 91.7728 420.079 90.0184C422.548 88.2746 424.47 85.7849 425.836 82.5598C427.201 79.3347 427.884 75.5424 427.884 71.2143C427.884 64.6065 426.382 59.375 423.378 55.5406C420.373 51.7062 416.402 49.7838 411.465 49.7838H410.666C407.473 49.7838 404.605 50.6662 402.063 52.4101C399.51 54.1539 397.524 56.6437 396.085 59.8687C394.636 63.1043 393.921 66.8862 393.921 71.2143C393.921 75.5424 394.646 79.3242 396.085 82.5598C397.524 85.7849 399.52 88.2746 402.063 90.0184C404.605 91.7728 407.473 92.6447 410.666 92.6447H411.475Z" fill="white" />
    <path d="M461.175 100.86C457.677 100.86 454.525 100.135 451.71 98.6957C448.894 97.2565 446.678 95.2395 445.039 92.6552C443.4 90.071 442.581 87.1821 442.581 83.9885C442.581 80.0386 443.589 76.7925 445.606 74.2502C447.623 71.6975 450.144 69.8381 453.191 68.6615C456.227 67.4849 459.494 66.7811 462.992 66.55L479.412 65.1843V63.2409C479.412 60.352 478.918 57.9253 477.93 55.9503C476.943 53.9754 475.472 52.4521 473.539 51.3911C471.596 50.3301 469.337 49.7943 466.753 49.7943H465.955C462.614 49.7943 459.767 50.5927 457.403 52.1895C455.05 53.7863 453.716 56.0659 453.412 59.0283H443.726C444.03 53.8598 446.289 49.6683 450.512 46.4327C454.725 43.2076 460.03 41.5898 466.417 41.5898C471.207 41.5898 475.325 42.5668 478.781 44.4997C482.238 46.4327 484.822 49.059 486.534 52.3576C488.247 55.6667 489.097 59.2909 489.097 63.2409V87.1715C489.097 89.7558 489.139 91.7728 489.213 93.212C489.213 94.273 489.245 95.3656 489.329 96.4686C489.402 97.5716 489.518 98.6537 489.675 99.7147H480.557C480.41 98.9583 480.315 98.1389 480.273 97.267C480.231 96.3951 480.179 95.5021 480.095 94.5882C480.021 93.7583 479.979 92.9914 479.979 92.3086C479.979 91.6257 479.979 91.0584 479.979 90.6067C478.76 93.4221 476.449 95.8278 473.025 97.8448C469.61 99.8407 465.65 100.86 461.175 100.86ZM463.223 92.6447C465.65 92.6447 468.129 92.0354 470.629 90.8168C473.14 89.6087 475.22 87.9489 476.901 85.8584C478.571 83.7679 479.412 81.5513 479.412 79.1877V72.8005L464.473 73.9456C460.828 74.2502 457.887 75.2377 455.639 76.908C453.391 78.5784 452.277 80.7844 452.277 83.5158C452.277 86.1 453.222 88.2641 455.134 90.0079C457.036 91.7623 459.389 92.6342 462.204 92.6342H463.223V92.6447Z" fill="white" />
    <path d="M517.356 99.7147C513.48 99.7147 510.518 98.7062 508.469 96.6892C506.41 94.6827 505.391 91.7728 505.391 87.9699V51.0444H492.627V42.7244H505.391V24.2563H515.077V42.7244H528.986V51.0444H515.077V86.6148C515.077 88.2851 515.413 89.4617 516.106 90.1445C516.789 90.8273 517.966 91.174 519.636 91.174H530.698V99.7252H517.356V99.7147Z" fill="white" />
    <path d="M536.623 99.7146V19.9281H546.308V51.2754C548.21 48.2394 550.731 45.8653 553.893 44.153C557.045 42.4406 560.826 41.5897 565.239 41.5897C569.493 41.5897 573.138 42.4301 576.174 44.1004C579.21 45.7707 581.511 48.1344 583.066 51.1704C584.621 54.2064 585.408 57.7466 585.408 61.77V99.7251H575.723V64.0392C575.723 61.0032 575.282 58.4189 574.41 56.2864C573.538 54.1643 572.182 52.5466 570.365 51.4435C568.548 50.351 566.268 49.7942 563.526 49.7942H562.497C559.681 49.7942 557.045 50.5401 554.565 52.0213C552.097 53.5025 550.101 55.6351 548.588 58.3979C547.065 61.1713 546.308 64.4173 546.308 68.1467V99.7146H536.623Z" fill="white" />
    <path d="M591.659 120V111.449H607.732C608.867 111.449 609.759 111.302 610.411 110.998C611.052 110.693 611.535 110.22 611.839 109.569C612.144 108.928 612.291 108.025 612.291 106.89V93.6641L613.657 101.753L588.245 42.7142H598.614L618.447 89.4515H615.6L634.982 42.7142H645.015L620.054 101.753L621.536 93.6641V108.707C621.536 112.584 620.58 115.431 618.678 117.259C616.777 119.086 613.888 119.99 610.022 119.99H591.659V120Z" fill="white" />
    <defs>
    <linearGradient id="paint0_linear_210_1416" x1="47.746" y1="119.664" x2="94.4938" y2="119.664" gradientUnits="userSpaceOnUse">
        <stop stop-color="white" />
        <stop offset="1" stop-color="white" stop-opacity="0" />
    </linearGradient>
    <linearGradient id="paint1_linear_210_1416" x1="72.4006" y1="19.9492" x2="-4.297" y2="19.9492" gradientUnits="userSpaceOnUse">
        <stop stop-color="white" />
        <stop offset="1" stop-color="white" stop-opacity="0" />
    </linearGradient>
    </defs>
</svg>